<?xml version="1.0" encoding="utf-8"?>
<!-- Generator: Adobe Illustrator 22.0.1, SVG Export Plug-In . SVG Version: 6.00 Build 0)  -->
<svg version="1.1" id="Layer_1" xmlns="http://www.w3.org/2000/svg" xmlns:xlink="http://www.w3.org/1999/xlink" x="0px" y="0px"
	 viewBox="0 0 256 256" style="enable-background:new 0 0 256 256;" xml:space="preserve">
<style type="text/css">
	.st0{fill:#3A312A;}
	.st1{fill:#FCE8CB;}
	.st2{fill:#8AC5DC;}
	.st3{fill:#ED6E7A;}
	.st4{fill:#D7E057;}
	.st5{fill:#87796F;}
	.st6{fill:#695B51;}
	.st7{fill:#EF6D7A;}
	.st8{fill:#D6DF58;}
	.st9{fill:#6A5C52;}
	.st10{fill:#F16C7A;}
	.st11{fill:#8AC6DD;}
	.st12{fill:#D34E5C;}
	.st13{fill:#B9C239;}
	.st14{fill:#6CA8BF;}
	.st15{fill:#89C4DB;}
	.st16{fill:#D5DE58;}
	.st17{fill:#DECAAD;}
	.st18{fill:#D5DC57;}
	.st19{fill:#8AC3DA;}
	.st20{fill:#D4DB56;}
	.st21{fill:#EA6D7A;}
	.st22{fill:#FAE6CA;}
	.st23{fill:#EB6E7A;}
	.st24{fill:#F8E4C8;}
	.st25{fill:#E96C7A;}
	.st26{fill:#8AC2D9;}
	.st27{fill:#E86C7A;}
	.st28{fill:#8AC1D8;}
	.st29{fill:#D4DA55;}
</style>
<g>
	<g>
		<g>
			<path class="st0" d="M196.442,194.321L61.109,58.988c-0.586-0.586-1.535-0.586-2.121,0c-0.586,0.585-0.586,1.536,0,2.121
				l135.333,135.333c0.293,0.293,0.677,0.439,1.061,0.439s0.768-0.146,1.061-0.439C197.028,195.857,197.028,194.907,196.442,194.321
				z"/>
		</g>
	</g>
	<g>
		<g>
			<path class="st0" d="M196.442,59.558c-0.586-0.586-1.535-0.586-2.121,0L58.988,194.891c-0.586,0.585-0.586,1.536,0,2.121
				c0.293,0.293,0.677,0.439,1.06,0.439s0.768-0.146,1.061-0.439L196.442,61.679C197.028,61.093,197.028,60.143,196.442,59.558z"/>
		</g>
	</g>
	<g>
		<g>
			<path class="st2" d="M206.307,49.693c-6.85-6.85-17.956-6.85-24.806,0c-6.85,6.85-6.85,17.956,0,24.806
				c6.85,6.85,17.956,6.85,24.806,0C213.157,67.648,213.157,56.543,206.307,49.693z"/>
		</g>
	</g>
	<g>
		<g>
			<path class="st0" d="M207.367,48.632c-3.596-3.596-8.377-5.577-13.463-5.577s-9.867,1.981-13.463,5.577
				c-3.597,3.596-5.577,8.377-5.577,13.463s1.98,9.867,5.577,13.463c3.712,3.712,8.587,5.568,13.463,5.568s9.751-1.856,13.463-5.568
				c3.597-3.596,5.577-8.377,5.577-13.463S210.964,52.229,207.367,48.632z M205.246,73.438c-6.254,6.254-16.43,6.254-22.684,0
				c-3.03-3.03-4.698-7.058-4.698-11.342s1.668-8.313,4.698-11.342c3.029-3.03,7.058-4.698,11.342-4.698s8.313,1.668,11.342,4.698
				c3.03,3.03,4.698,7.058,4.698,11.342S208.276,70.408,205.246,73.438z"/>
		</g>
	</g>
	<g>
		<g>
			<path class="st2" d="M74.498,181.501c-6.85-6.85-17.956-6.85-24.805,0c-6.85,6.85-6.85,17.956,0,24.806
				c6.85,6.85,17.956,6.85,24.805,0C81.348,199.457,81.348,188.351,74.498,181.501z"/>
		</g>
	</g>
	<g>
		<g>
			<path class="st0" d="M75.559,180.441c-3.596-3.596-8.377-5.577-13.463-5.577c-5.086,0-9.867,1.98-13.463,5.577
				c-3.597,3.596-5.577,8.377-5.577,13.463s1.98,9.867,5.577,13.463c3.596,3.596,8.377,5.577,13.463,5.577
				c5.086,0,9.867-1.981,13.463-5.577c3.597-3.596,5.577-8.377,5.577-13.463S79.155,184.037,75.559,180.441z M73.438,205.247
				c-3.029,3.03-7.058,4.698-11.342,4.698c-4.284,0-8.313-1.668-11.342-4.698c-3.03-3.03-4.698-7.058-4.698-11.342
				s1.668-8.313,4.698-11.342c3.029-3.029,7.058-4.698,11.342-4.698c4.284,0,8.313,1.668,11.342,4.698
				c3.03,3.03,4.698,7.058,4.698,11.342S76.468,202.217,73.438,205.247z"/>
		</g>
	</g>
	<g>
		<g>
			<path class="st2" d="M206.307,181.501c-6.85-6.85-17.956-6.85-24.806,0c-6.85,6.85-6.85,17.956,0,24.806
				c6.85,6.85,17.956,6.85,24.806,0S213.157,188.351,206.307,181.501z"/>
		</g>
	</g>
	<g>
		<g>
			<path class="st0" d="M207.367,180.441c-3.596-3.596-8.377-5.577-13.463-5.577s-9.867,1.981-13.463,5.577
				c-3.597,3.596-5.577,8.377-5.577,13.463s1.98,9.867,5.577,13.463c3.596,3.596,8.377,5.577,13.463,5.577s9.867-1.98,13.463-5.577
				c3.597-3.596,5.577-8.377,5.577-13.463S210.964,184.037,207.367,180.441z M205.246,205.247c-3.029,3.03-7.058,4.698-11.342,4.698
				s-8.313-1.668-11.342-4.698c-3.03-3.03-4.698-7.058-4.698-11.342s1.668-8.313,4.698-11.342c3.029-3.03,7.058-4.698,11.342-4.698
				s8.313,1.668,11.342,4.698c3.03,3.03,4.698,7.058,4.698,11.342S208.276,202.217,205.246,205.247z"/>
		</g>
	</g>
	<g>
		<g>
			<circle class="st2" cx="62.096" cy="62.096" r="17.54"/>
		</g>
	</g>
	<g>
		<g>
			<path class="st0" d="M75.559,48.632c-3.596-3.596-8.377-5.577-13.463-5.577c-5.086,0-9.867,1.981-13.463,5.577
				c-3.597,3.596-5.577,8.377-5.577,13.463s1.98,9.867,5.577,13.463c3.596,3.596,8.377,5.577,13.463,5.577
				c5.086,0,9.867-1.98,13.463-5.577c3.597-3.596,5.577-8.378,5.577-13.463C81.136,57.01,79.155,52.228,75.559,48.632z
				 M73.438,73.438c-3.029,3.03-7.058,4.698-11.342,4.698c-4.284,0-8.313-1.668-11.342-4.698c-3.03-3.03-4.698-7.058-4.698-11.342
				s1.668-8.313,4.698-11.342c3.029-3.03,7.058-4.698,11.342-4.698c4.284,0,8.313,1.668,11.342,4.698
				c3.03,3.03,4.698,7.058,4.698,11.342C78.136,66.38,76.468,70.408,73.438,73.438z"/>
		</g>
	</g>
	<g>
		<g>
			<path class="st0" d="M128,30.403c-0.828,0-1.5,0.671-1.5,1.5v191.39c0,0.829,0.672,1.5,1.5,1.5s1.5-0.671,1.5-1.5V31.903
				C129.5,31.074,128.828,30.403,128,30.403z"/>
		</g>
	</g>
	<g>
		<g>
			<path class="st0" d="M223.292,126.5H31.902c-0.828,0-1.5,0.671-1.5,1.5s0.672,1.5,1.5,1.5h191.39c0.828,0,1.5-0.671,1.5-1.5
				S224.12,126.5,223.292,126.5z"/>
		</g>
	</g>
	<g>
		<g>
			<path class="st2" d="M221.203,110.46c-9.687,0-17.54,7.853-17.54,17.54s7.853,17.54,17.54,17.54c9.687,0,17.54-7.853,17.54-17.54
				S230.89,110.46,221.203,110.46z"/>
		</g>
	</g>
	<g>
		<g>
			<path class="st0" d="M221.203,108.96c-10.499,0-19.04,8.542-19.04,19.04s8.541,19.04,19.04,19.04s19.04-8.542,19.04-19.04
				S231.702,108.96,221.203,108.96z M221.203,144.04c-8.845,0-16.04-7.195-16.04-16.04s7.195-16.04,16.04-16.04
				s16.04,7.195,16.04,16.04S230.048,144.04,221.203,144.04z"/>
		</g>
	</g>
	<g>
		<g>
			<path class="st2" d="M34.797,110.46c-9.687,0-17.54,7.853-17.54,17.54s7.853,17.54,17.54,17.54c9.687,0,17.54-7.853,17.54-17.54
				C52.337,118.313,44.484,110.46,34.797,110.46z"/>
		</g>
	</g>
	<g>
		<g>
			<path class="st0" d="M34.797,108.96c-10.499,0-19.04,8.542-19.04,19.04s8.541,19.04,19.04,19.04c5.086,0,9.867-1.98,13.464-5.577
				c3.597-3.596,5.577-8.377,5.576-13.463C53.837,117.501,45.296,108.96,34.797,108.96z M46.14,139.342
				c-3.03,3.029-7.058,4.698-11.343,4.698c-8.845,0-16.04-7.195-16.04-16.04s7.195-16.04,16.04-16.04
				c8.845,0,16.04,7.195,16.04,16.04C50.837,132.285,49.169,136.313,46.14,139.342z"/>
		</g>
	</g>
	<g>
		<g>
			<path class="st2" d="M128,203.663c-9.687,0-17.54,7.853-17.54,17.54c0,9.687,7.853,17.54,17.54,17.54
				c9.687,0,17.54-7.853,17.54-17.54C145.54,211.516,137.687,203.663,128,203.663z"/>
		</g>
	</g>
	<g>
		<g>
			<path class="st0" d="M128,202.163c-10.499,0-19.04,8.542-19.04,19.04c0,10.499,8.541,19.041,19.04,19.041
				s19.04-8.542,19.04-19.041C147.04,210.704,138.499,202.163,128,202.163z M128,237.243c-8.845,0-16.04-7.196-16.04-16.041
				s7.195-16.04,16.04-16.04s16.04,7.195,16.04,16.04S136.845,237.243,128,237.243z"/>
		</g>
	</g>
	<g>
		<g>
			
				<ellipse transform="matrix(0.2011 -0.9796 0.9796 0.2011 68.177 153.1865)" class="st2" cx="128" cy="34.797" rx="17.54" ry="17.54"/>
		</g>
	</g>
	<g>
		<g>
			<path class="st0" d="M128,15.757c-10.499,0-19.04,8.542-19.04,19.041c0,10.499,8.541,19.04,19.04,19.04s19.04-8.542,19.04-19.04
				C147.04,24.298,138.499,15.757,128,15.757z M128,50.837c-8.845,0-16.04-7.195-16.04-16.04s7.195-16.041,16.04-16.041
				s16.04,7.196,16.04,16.041S136.845,50.837,128,50.837z"/>
		</g>
	</g>
	<g>
		<g>
			<path class="st1" d="M128.063,84.029c-14.788,0-27.872,7.26-35.908,18.403l-6.39,12.81c-1.269,4.123-1.956,8.501-1.956,13.04
				c0,24.44,19.812,44.253,44.253,44.253c24.441,0,44.253-19.813,44.253-44.253C172.316,103.842,152.503,84.029,128.063,84.029z"/>
		</g>
	</g>
	<g>
		<g>
			<path class="st0" d="M128.063,82.529c-14.654,0-28.532,7.112-37.124,19.025c-0.484,0.672-0.333,1.609,0.34,2.094
				c0.668,0.483,1.609,0.333,2.094-0.339c8.029-11.133,20.998-17.78,34.69-17.78c23.574,0,42.754,19.179,42.754,42.753
				s-19.18,42.753-42.754,42.753S85.31,151.856,85.31,128.282c0-4.288,0.636-8.527,1.89-12.599c0.244-0.792-0.2-1.631-0.992-1.875
				c-0.792-0.243-1.631,0.201-1.875,0.992c-1.342,4.358-2.022,8.895-2.022,13.482c0,25.228,20.524,45.753,45.753,45.753
				s45.754-20.525,45.754-45.753C173.816,103.054,153.291,82.529,128.063,82.529z"/>
		</g>
	</g>
	<g>
		<g>
			<path class="st17" d="M128.067,85.527c-2.56,0-5.06,0.23-7.5,0.66c20.01,3.55,35.25,21.08,35.25,42.1s-15.25,38.55-35.27,42.09
				c2.46,0.44,4.97,0.66,7.52,0.66c23.57,0,42.75-19.18,42.75-42.75C170.817,104.707,151.637,85.527,128.067,85.527z"/>
		</g>
	</g>
</g>
</svg>
