<svg id="visual" viewBox="0 0 960 540" width="960" height="540" xmlns="http://www.w3.org/2000/svg" xmlns:xlink="http://www.w3.org/1999/xlink" version="1.1"><rect x="0" y="0" width="960" height="540" fill="#140021"></rect><path d="M505 0L505 0L505 30L505 30L505 60L505 60L505 90L505 90L505 120L505 120L505 150L505 150L505 180L505 180L505 210L505 210L505 240L505 240L505 270L505 270L505 300L505 300L505 330L505 330L505 360L505 360L505 390L505 390L505 420L505 420L505 450L505 450L505 480L505 480L505 510L505 510L505 540L0 540L0 510L0 510L0 480L0 480L0 450L0 450L0 420L0 420L0 390L0 390L0 360L0 360L0 330L0 330L0 300L0 300L0 270L0 270L0 240L0 240L0 210L0 210L0 180L0 180L0 150L0 150L0 120L0 120L0 90L0 90L0 60L0 60L0 30L0 30L0 0L0 0Z" fill="#6068d2"></path><path d="M433 0L433 0L433 30L433 30L433 60L433 60L433 90L433 90L433 120L433 120L433 150L433 150L433 180L433 180L433 210L433 210L433 240L433 240L433 270L433 270L433 300L433 300L433 330L433 330L433 360L433 360L433 390L433 390L433 420L433 420L433 450L433 450L433 480L433 480L433 510L433 510L433 540L0 540L0 510L0 510L0 480L0 480L0 450L0 450L0 420L0 420L0 390L0 390L0 360L0 360L0 330L0 330L0 300L0 300L0 270L0 270L0 240L0 240L0 210L0 210L0 180L0 180L0 150L0 150L0 120L0 120L0 90L0 90L0 60L0 60L0 30L0 30L0 0L0 0Z" fill="#5974db"></path><path d="M361 0L361 0L361 30L361 30L361 60L361 60L361 90L361 90L361 120L361 120L361 150L361 150L361 180L361 180L361 210L361 210L361 240L361 240L361 270L361 270L361 300L361 300L361 330L361 330L361 360L361 360L361 390L361 390L361 420L361 420L361 450L361 450L361 480L361 480L361 510L361 510L361 540L0 540L0 510L0 510L0 480L0 480L0 450L0 450L0 420L0 420L0 390L0 390L0 360L0 360L0 330L0 330L0 300L0 300L0 270L0 270L0 240L0 240L0 210L0 210L0 180L0 180L0 150L0 150L0 120L0 120L0 90L0 90L0 60L0 60L0 30L0 30L0 0L0 0Z" fill="#5380e2"></path><path d="M289 0L289 0L289 30L289 30L289 60L289 60L289 90L289 90L289 120L289 120L289 150L289 150L289 180L289 180L289 210L289 210L289 240L289 240L289 270L289 270L289 300L289 300L289 330L289 330L289 360L289 360L289 390L289 390L289 420L289 420L289 450L289 450L289 480L289 480L289 510L289 510L289 540L0 540L0 510L0 510L0 480L0 480L0 450L0 450L0 420L0 420L0 390L0 390L0 360L0 360L0 330L0 330L0 300L0 300L0 270L0 270L0 240L0 240L0 210L0 210L0 180L0 180L0 150L0 150L0 120L0 120L0 90L0 90L0 60L0 60L0 30L0 30L0 0L0 0Z" fill="#4e8ce9"></path><path d="M217 0L217 0L217 30L217 30L217 60L217 60L217 90L217 90L217 120L217 120L217 150L217 150L217 180L217 180L217 210L217 210L217 240L217 240L217 270L217 270L217 300L217 300L217 330L217 330L217 360L217 360L217 390L217 390L217 420L217 420L217 450L217 450L217 480L217 480L217 510L217 510L217 540L0 540L0 510L0 510L0 480L0 480L0 450L0 450L0 420L0 420L0 390L0 390L0 360L0 360L0 330L0 330L0 300L0 300L0 270L0 270L0 240L0 240L0 210L0 210L0 180L0 180L0 150L0 150L0 120L0 120L0 90L0 90L0 60L0 60L0 30L0 30L0 0L0 0Z" fill="#4b97ee"></path><path d="M145 0L145 0L145 30L145 30L145 60L145 60L145 90L145 90L145 120L145 120L145 150L145 150L145 180L145 180L145 210L145 210L145 240L145 240L145 270L145 270L145 300L145 300L145 330L145 330L145 360L145 360L145 390L145 390L145 420L145 420L145 450L145 450L145 480L145 480L145 510L145 510L145 540L0 540L0 510L0 510L0 480L0 480L0 450L0 450L0 420L0 420L0 390L0 390L0 360L0 360L0 330L0 330L0 300L0 300L0 270L0 270L0 240L0 240L0 210L0 210L0 180L0 180L0 150L0 150L0 120L0 120L0 90L0 90L0 60L0 60L0 30L0 30L0 0L0 0Z" fill="#4ca2f3"></path><path d="M73 0L73 0L73 30L73 30L73 60L73 60L73 90L73 90L73 120L73 120L73 150L73 150L73 180L73 180L73 210L73 210L73 240L73 240L73 270L73 270L73 300L73 300L73 330L73 330L73 360L73 360L73 390L73 390L73 420L73 420L73 450L73 450L73 480L73 480L73 510L73 510L73 540L0 540L0 510L0 510L0 480L0 480L0 450L0 450L0 420L0 420L0 390L0 390L0 360L0 360L0 330L0 330L0 300L0 300L0 270L0 270L0 240L0 240L0 210L0 210L0 180L0 180L0 150L0 150L0 120L0 120L0 90L0 90L0 60L0 60L0 30L0 30L0 0L0 0Z" fill="#4facf7"></path></svg>